<?xml version="1.0" encoding="UTF-8"?>
<svg width="352.4mm" height="266.26mm" version="1.1" viewBox="0 0 1248.6606 943.43254" xmlns="http://www.w3.org/2000/svg" xmlns:xlink="http://www.w3.org/1999/xlink">
 <defs>
  <filter id="b" color-interpolation-filters="sRGB">
   <feGaussianBlur result="blur" stdDeviation="5 5"/>
  </filter>
  <radialGradient id="h" cx="63.45" cy="115" r="60.03" gradientTransform="matrix(1 0 0 .051282 0 109.1)" gradientUnits="userSpaceOnUse">
   <stop offset="0"/>
   <stop stop-opacity=".731" offset=".902"/>
   <stop stop-opacity="0" offset="1"/>
  </radialGradient>
  <filter id="g" x="-.031" y="-.603" width="1.062" height="2.207" color-interpolation-filters="sRGB">
   <feGaussianBlur stdDeviation="1.54803"/>
  </filter>
  <filter id="d" color-interpolation-filters="sRGB">
   <feGaussianBlur stdDeviation="2.58594"/>
  </filter>
  <radialGradient id="ab" cx="60.692" cy="48.661" r="39.28" gradientTransform="matrix(1.5093 .0032729 -.00053253 .24558 723.05 443.15)" gradientUnits="userSpaceOnUse" xlink:href="#c"/>
  <linearGradient id="c">
   <stop stop-color="#eee" offset="0"/>
   <stop stop-color="#eee" stop-opacity="0" offset="1"/>
  </linearGradient>
  <radialGradient id="z" cx="81.79" cy="100.32" r="44.42" gradientTransform="matrix(1.666 -1.3286 1.4786 1.8541 533.73 460.68)" gradientUnits="userSpaceOnUse">
   <stop stop-color="#eee" offset="0"/>
   <stop stop-color="#d2d2d2" offset="1"/>
  </radialGradient>
  <radialGradient id="t" cx="89.51" cy="22.254" r="18.279" gradientTransform="matrix(1 0 0 .97468 0 .43911)" gradientUnits="userSpaceOnUse">
   <stop offset="0"/>
   <stop stop-opacity=".536" offset="1"/>
  </radialGradient>
  <filter id="e" x="-.147" y="-.145" width="1.294" height="1.29" color-interpolation-filters="sRGB">
   <feGaussianBlur stdDeviation="1.81881"/>
  </filter>
  <linearGradient id="y" x1="98.33" x2="86.82" y1="14.793" y2="25.1" gradientTransform="matrix(.80459 0 0 .80459 766.41 440.89)" gradientUnits="userSpaceOnUse">
   <stop offset="0"/>
   <stop stop-color="#ddd" stop-opacity="0" offset="1"/>
  </linearGradient>
  <linearGradient id="x" x2="0" y1="104.84" y2="63.31" gradientTransform="translate(752.59 425.68)" gradientUnits="userSpaceOnUse">
   <stop stop-color="#bbb" offset="0"/>
   <stop stop-color="#dcdcdc" offset="1"/>
  </linearGradient>
  <linearGradient id="w" x2="0" y1="109.8" y2="120.24" gradientTransform="matrix(1 0 0 .92479 752.52 433.94)" gradientUnits="userSpaceOnUse">
   <stop stop-color="#242424" offset="0"/>
   <stop stop-color="#535353" offset="1"/>
  </linearGradient>
  <filter id="f" color-interpolation-filters="sRGB">
   <feGaussianBlur stdDeviation="0.52859"/>
  </filter>
  <linearGradient id="v" x2="0" y1="97.56" y2="63.31" gradientTransform="translate(752.51 425.68)" gradientUnits="userSpaceOnUse">
   <stop stop-color="#323232" offset="0"/>
   <stop stop-color="#484848" offset="1"/>
  </linearGradient>
  <linearGradient id="u" x2="0" y1="111.88" y2="117" gradientUnits="userSpaceOnUse">
   <stop stop-color="#a2a2a2" offset="0"/>
   <stop stop-color="#f2f2f2" offset="1"/>
  </linearGradient>
  <radialGradient id="aa" cx="60.27" cy="-4.631" r="57.19" gradientTransform="matrix(3.0215 -.015915 .0023268 .44174 629.93 485.19)" gradientUnits="userSpaceOnUse" xlink:href="#c"/>
  <filter id="a" color-interpolation-filters="sRGB">
   <feGaussianBlur result="blur" stdDeviation="5 5"/>
  </filter>
  <filter id="ac" color-interpolation-filters="sRGB">
   <feGaussianBlur result="fbSourceGraphic" stdDeviation="5"/>
   <feGaussianBlur in="SourceGraphic" result="result1" stdDeviation="0.01"/>
   <feComposite in="fbSourceGraphic" in2="result1" k2="0.5" k3="0.5" operator="arithmetic" result="result2"/>
   <feBlend in2="fbSourceGraphic" result="result3"/>
  </filter>
  <filter id="ad" color-interpolation-filters="sRGB">
   <feGaussianBlur result="blur" stdDeviation="5 5"/>
  </filter>
 </defs>
 <g transform="translate(-18.499 -30.31)">
  <rect x="18.499" y="30.31" width="1248.7" height="943.43" fill="#fff"/>
  <path d="m937.88 133.82a107.86 107.86 0 0 1 -36.379 49.781c94.86 76.986 151.7 193.48 151.79 318.42-0.083 118.82-51.488 229.98-138.09 306.8a107.86 107.86 0 0 1 41.016 45.736c99.42-88.276 158.51-215.97 158.63-352.53-0.071-144.82-66.449-279.71-176.96-368.2zm-613.45 20.105c-96.437 88.123-153.52 213.85-153.62 348.1 0.0712 131.4 54.725 254.65 147.43 342.46a107.86 107.86 0 0 1 34.594 -52.523c-75.746-75.639-120.32-179.37-120.47-289.94 0.0596-119.24 51.785-230.58 138.61-307.34a130 114.29 0 0 1 -46.545 -40.754z" fill="#80deea"/>
  <circle cx="643.54" cy="496.48" r="74.775" fill="#fff"/>
  <circle cx="643.54" cy="496.48" r="107.86" fill="#00bcd4" filter="url(#b)"/>
  <circle cx="643.54" cy="496.48" r="107.86" fill="#fff"/>
  <path d="m643.54 409.34a87.149 87.149 0 0 0 -87.148 87.148 87.149 87.149 0 0 0 87.148 87.15 87.149 87.149 0 0 0 87.15 -87.15 87.149 87.149 0 0 0 -87.15 -87.148zm0 11.365a75.785 75.785 0 0 1 75.785 75.783 75.785 75.785 0 0 1 -75.785 75.785 75.785 75.785 0 0 1 -75.783 -75.785 75.785 75.785 0 0 1 75.783 -75.783z" fill="#26c6da"/>
  <g transform="matrix(.68605 0 0 .68605 191.26 157.29)" fill="#26c6da">
   <rect x="648.9" y="415.32" width="19.465" height="164.08" ry="4.8307"/>
   <rect transform="matrix(.70711 .70711 -.70711 .70711 0 0)" x="807.68" y="-177.39" width="19.465" height="126.7" ry="3.7303"/>
   <rect transform="matrix(.70711 -.70711 -.70711 -.70711 0 0)" x="158.95" y="-826.12" width="19.465" height="62.558" ry="3.7303"/>
   <rect transform="matrix(.70711 -.70711 -.70711 -.70711 0 0)" x="104.31" y="-880.77" width="19.465" height="126.7" ry="3.7303"/>
   <rect transform="matrix(.70711 .70711 -.70711 .70711 0 0)" x="861.55" y="-123.53" width="19.465" height="63.667" ry="3.7303"/>
  </g>
  <circle cx="1086.4" cy="496.48" r="107.86" fill="#00bcd4" filter="url(#b)"/>
  <circle cx="1086.4" cy="496.48" r="107.86" fill="#fff"/>
  <g transform="translate(271.4 -.87784)">
   <path transform="matrix(1 0 0 1.8333 754.16 334.12)" d="m123.48 115a60.032 3.0786 0 1 1 -120.06 0 60.032 3.0786 0 1 1 120.06 0z" fill="url(#h)" filter="url(#g)" opacity=".729"/>
   <path d="m778.31 457.56v3.4375h1.0313v1.1875h-1.0313v59.812h78.5v-59.813h-0.875v-1.1875h0.875v-3.4375h-78.5z" fill="#323232"/>
   <path transform="matrix(.80459 0 0 .80801 766.41 440.45)" d="m20.094 4.1185v118h88.844v-86.156l-0.59375-0.625c0.21045 0.14439 0.41688 0.30216 0.625 0.4375l-30.875-31.625c0.05654 0.079597 0.09993 0.1703 0.15625 0.25l-0.25-0.28125h-57.906z" filter="url(#d)" opacity=".809"/>
   <path d="m779.27 458.52v1.5h0.062a0.9714 0.9714 0 0 1 0.9688 0.96875v1.1875a0.9714 0.9714 0 0 1 -0.9688 0.96875h-0.062v57.875h76.562v-57.875a0.9714 0.9714 0 0 1 -0.875 -0.96875v-1.1875a0.9714 0.9714 0 0 1 0.875 -0.96875v-1.5h-76.562z" fill="none" stroke="url(#ab)" stroke-width="2"/>
   <path d="m782.58 443.08v94.941h71.483v-69.32l-24.892-25.621h-46.591z" fill="url(#z)"/>
   <path transform="matrix(.8453 0 0 .92529 761.93 440.67)" d="m81.698 28.31 0.13516-8.351c0.067924-6.5991-0.87706-11.548-4.0474-16.011l2.5766-0.031203 27.5 25.615c-4.068-2.6454-9.6212-0.79124-16.862-1.0256l-9.3028-0.19573z" fill="url(#t)" filter="url(#e)" opacity=".505"/>
   <path d="m833.93 462.43 0.1087-6.7191c0.055-5.3096-2.2392-9.0147-4.79-12.606l24.847 25.447c-3.2731-2.1284-6.8548-5.7756-12.681-5.9642l-7.4848-0.15749z" fill="#eee"/>
   <path d="m833.93 462.43 0.1087-6.7191c0.055-5.3096-2.2392-9.0147-4.79-12.606l24.847 25.447c-3.2731-2.1284-6.8548-5.7756-12.681-5.9642l-7.4848-0.15749z" fill="url(#y)"/>
   <path d="m768.22 489c-4.3229 0-7.8125 3.4896-7.8125 7.8125v33.719h114.31v-33.719c0-4.3229-3.4897-7.8125-7.8125-7.8125h-98.688z" fill="url(#x)"/>
   <path d="m760.4 530.53v15.625h114.31v-15.625h-114.31z" fill="#555"/>
   <path d="m760.4 530.53v2.2421h114.31v-2.2421h-114.31z" fill="#323232"/>
   <rect x="774.22" y="537.58" width="86.68" height="10.294" rx="1.7" fill="#bbb"/>
   <rect x="779.67" y="535.49" width="75.79" height="9.658" rx="2.682" fill="url(#w)"/>
   <path transform="matrix(1 0 0 .90179 752.59 431.78)" d="m30 63.312v34.25h71.281c0.0657 0 0.12277-0.02736 0.1875-0.03125v-34.219h-71.469z" filter="url(#f)"/>
   <path d="m778.26 489c-0.051 0.22582-0.094 0.44574-0.094 0.6875v30.438c0 1.7411 1.4152 3.125 3.1563 3.125h72.469c1.7411 0 3.1563-1.3839 3.1563-3.125v-30.438c0-0.24176-0.043-0.46168-0.094-0.6875h-78.594z" fill="url(#v)"/>
   <g transform="translate(751.2 407.28)">
    <path d="m17.75 111.88c-1.4052 0-2.5625 1.1573-2.5625 2.5625s1.1573 2.5625 2.5625 2.5625 2.5625-1.1573 2.5625-2.5625-1.1573-2.5625-2.5625-2.5625z" fill="url(#u)"/>
    <rect x="15.761" y="112.43" width="4" height="4" rx="2" fill="#00a7b3"/>
    <rect x="16.59" y="113.26" width="2.342" height="2.342" rx="1.171" fill="#00c4cc"/>
    <path d="m17.75 113.81c-0.34226 0-0.59375 0.26498-0.59375 0.625s0.23372 0.59375 0.59375 0.59375 0.625-0.25149 0.625-0.59375-0.28274-0.625-0.625-0.625z" fill="#a8dde0"/>
   </g>
   <path d="m768.21 489.96c-3.7932-1e-5 -6.8437 3.0505-6.8437 6.8438v32.75h112.38v-32.75c0-3.7932-3.0505-6.8438-6.8438-6.8438h-98.688z" fill="none" stroke="url(#aa)" stroke-width="2"/>
  </g>
  <circle cx="199.26" cy="496.48" r="107.86" fill="#00bcd4" filter="url(#b)"/>
  <circle cx="199.26" cy="496.48" r="107.86" fill="#fff"/>
  <path transform="matrix(.87303 0 0 .87303 13.512 61.932)" d="m158.6 439.37a5.5701 7.8245 0 0 0 -5.5703 7.8242v87.326a5.5701 7.8245 0 0 0 5.5703 7.8242h44.418a5.5701 7.8245 0 0 0 5.5703 -7.8242v-87.326a5.5701 7.8245 0 0 0 -5.5703 -7.8242h-44.418zm61.285 0a5.5701 7.8245 0 0 0 -5.5703 7.8242v87.326a5.5701 7.8245 0 0 0 5.5703 7.8242h44.418a5.5701 7.8245 0 0 0 5.5703 -7.8242v-87.326a5.5701 7.8245 0 0 0 -5.5703 -7.8242h-44.418zm-61.285 105.24a5.5701 1.2652 0 0 0 -5.5703 1.2656v14.121a5.5701 1.2652 0 0 0 5.5703 1.2637h44.418a5.5701 1.2652 0 0 0 5.5703 -1.2637v-14.121a5.5701 1.2652 0 0 0 -5.5703 -1.2656h-44.418zm61.285 0a5.5701 1.2652 0 0 0 -5.5703 1.2656v14.121a5.5701 1.2652 0 0 0 5.5703 1.2637h44.418a5.5701 1.2652 0 0 0 5.5703 -1.2637v-14.121a5.5701 1.2652 0 0 0 -5.5703 -1.2656h-44.418z" fill="#26c6da" filter="url(#ad)"/>
  <path d="m151.98 445.51h38.779a4.8629 6.831 0 0 1 4.8629 6.831v76.239a4.8629 6.831 0 0 1 -4.8629 6.831h-38.779a4.8629 6.831 0 0 1 -4.8629 -6.831v-76.239a4.8629 6.831 0 0 1 4.8629 -6.831" fill="#fff"/>
  <path d="m187.48 470.36c0 8.7155-7.0654 15.781-15.781 15.781s-15.781-7.0653-15.781-15.781 7.0653-15.781 15.781-15.781c8.7155 0 15.781 7.0653 15.781 15.781z" fill="#26c6da"/>
  <path d="m190.8 511.89c0 10.55-8.5528 19.103-19.103 19.103-10.55 0-19.103-8.5527-19.103-19.103 0-10.55 8.5528-19.103 19.103-19.103s19.103 8.5528 19.103 19.103z" fill="#26c6da"/>
  <path d="m183.79 470.36c0 6.6756-5.4117 12.087-12.087 12.087s-12.087-5.4116-12.087-12.087 5.4116-12.087 12.087-12.087c6.6756 0 12.087 5.4116 12.087 12.087z" fill="#fff"/>
  <path d="m177.5 470.36c0 3.211-2.6031 5.8141-5.8141 5.8141s-5.8141-2.6031-5.8141-5.8141 2.6031-5.8141 5.8141-5.8141 5.8141 2.603 5.8141 5.8141z" fill="#26c6da"/>
  <path d="m189.36 511.89c0 9.7585-7.9108 17.669-17.669 17.669s-17.669-7.9107-17.669-17.669c0-9.7584 7.9107-17.669 17.669-17.669 9.7584 0 17.669 7.9108 17.669 17.669z" fill="#26c6da"/>
  <path d="m185.89 511.89c0 7.8401-6.3558 14.196-14.196 14.196-7.8401 0-14.196-6.3557-14.196-14.196 0-7.8402 6.3557-14.196 14.196-14.196 7.8402 0 14.196 6.3557 14.196 14.196z" fill="#fff"/>
  <path d="m176.97 511.89c0 2.919-2.3663 5.2852-5.2853 5.2852s-5.2853-2.3663-5.2853-5.2852 2.3663-5.2852 5.2853-5.2852 5.2853 2.3663 5.2853 5.2852z" fill="#26c6da"/>
  <path d="m151.98 537.39h38.779a4.8629 1.1045 0 0 1 4.8629 1.1045v12.328a4.8629 1.1045 0 0 1 -4.8629 1.1046h-38.779a4.8629 1.1045 0 0 1 -4.8629 -1.1046v-12.328a4.8629 1.1045 0 0 1 4.8629 -1.1045" fill="#fff"/>
  <path d="m158.97 541.31h24.792a3.109 0.5084 0 0 1 3.109 0.50837v5.6741a3.109 0.5084 0 0 1 -3.109 0.50854h-24.792a3.109 0.5084 0 0 1 -3.109 -0.50854v-5.6741a3.109 0.5084 0 0 1 3.109 -0.50837" fill="#26c6da"/>
  <path d="m205.48 445.51h38.779a4.8629 6.831 0 0 1 4.8629 6.831v76.239a4.8629 6.831 0 0 1 -4.8629 6.831h-38.779a4.8629 6.831 0 0 1 -4.8629 -6.831v-76.239a4.8629 6.831 0 0 1 4.8629 -6.831" fill="#fff"/>
  <path d="m240.99 470.36c0 8.7155-7.0654 15.781-15.781 15.781s-15.781-7.0653-15.781-15.781 7.0653-15.781 15.781-15.781c8.7155 0 15.781 7.0653 15.781 15.781z" fill="#26c6da"/>
  <path d="m244.31 511.89c0 10.55-8.5528 19.103-19.103 19.103-10.55 0-19.103-8.5527-19.103-19.103 0-10.55 8.5528-19.103 19.103-19.103 10.55 0 19.103 8.5528 19.103 19.103z" fill="#26c6da"/>
  <path d="m237.29 470.36c0 6.6756-5.4117 12.087-12.087 12.087s-12.087-5.4116-12.087-12.087 5.4116-12.087 12.087-12.087 12.087 5.4116 12.087 12.087z" fill="#fff"/>
  <path d="m231.01 470.36c0 3.211-2.6031 5.8141-5.8141 5.8141s-5.8141-2.6031-5.8141-5.8141 2.603-5.8141 5.8141-5.8141 5.8141 2.603 5.8141 5.8141z" fill="#26c6da"/>
  <path d="m242.86 511.89c0 9.7585-7.9108 17.669-17.669 17.669-9.7584 0-17.669-7.9107-17.669-17.669 0-9.7584 7.9107-17.669 17.669-17.669 9.7584 0 17.669 7.9108 17.669 17.669z" fill="#26c6da"/>
  <path d="m239.39 511.89c0 7.8401-6.3558 14.196-14.196 14.196-7.8401 0-14.196-6.3557-14.196-14.196 0-7.8402 6.3557-14.196 14.196-14.196 7.8402 0 14.196 6.3557 14.196 14.196z" fill="#fff"/>
  <path d="m230.48 511.89c0 2.919-2.3663 5.2852-5.2853 5.2852s-5.2853-2.3663-5.2853-5.2852 2.3663-5.2852 5.2853-5.2852 5.2853 2.3663 5.2853 5.2852z" fill="#26c6da"/>
  <path d="m205.48 537.39h38.779a4.8629 1.1045 0 0 1 4.8629 1.1045v12.328a4.8629 1.1045 0 0 1 -4.8629 1.1046h-38.779a4.8629 1.1045 0 0 1 -4.8629 -1.1046v-12.328a4.8629 1.1045 0 0 1 4.8629 -1.1045" fill="#fff"/>
  <path d="m212.47 541.31h24.792a3.109 0.5084 0 0 1 3.109 0.50837v5.6741a3.109 0.5084 0 0 1 -3.109 0.50854h-24.792a3.109 0.5084 0 0 1 -3.109 -0.50854v-5.6741a3.109 0.5084 0 0 1 3.109 -0.50837" fill="#26c6da"/>
  <circle cx="956.38" cy="189.17" r="107.86" fill="#00bcd4" filter="url(#a)"/>
  <circle cx="956.38" cy="189.17" r="107.86" fill="#fff"/>
  <circle cx="330.84" cy="189.17" r="107.86" fill="#00bcd4" filter="url(#a)"/>
  <circle cx="330.84" cy="189.17" r="107.86" fill="#fff"/>
  <circle cx="958.8" cy="814.88" r="107.86" fill="#00bcd4" filter="url(#a)"/>
  <circle cx="958.8" cy="814.88" r="107.86" fill="#fff"/>
  <circle cx="327.38" cy="814.88" r="107.86" fill="#00bcd4" filter="url(#a)"/>
  <circle cx="327.38" cy="814.88" r="107.86" fill="#fff"/>
  <path d="m265.23 142.75c-2.1896 0-3.9523 1.7781-3.9523 3.9868v73.299c0 0.18684 0.0171 0.36867 0.0414 0.54853h-0.0414v0.73817h-12.996c-0.73167 1.2866-0.40652 2.0404 0 2.7529 0.0602 0.10546 0.18862 0.21166 0.36859 0.31775h-0.20294c1.6831 1.6628 5.3448 2.9555 7.9385 2.9555h142.09c2.5936 0 4.8941-1.2928 6.5828-2.9555h-0.23895c0.19474-0.10668 0.33687-0.21272 0.40527-0.31775 0.67113-1.0304 0.27517-1.8816 0-2.7529h-13.062v-0.73817h-0.0407c0.0243-0.17986 0.0407-0.36169 0.0407-0.54853v-73.299c0-2.2088-1.7627-3.9868-3.9523-3.9868h-122.98z" fill="#26c6da" fill-rule="evenodd"/>
  <path transform="matrix(.31608 0 0 .31665 428.88 18.871)" d="m1496.8 380.93c-10.01 0-18.28 7.1605-20.004 16.658h-0.3457v227.49h0.059v18.09c0 9.9122 7.9803 17.893 17.892 17.893h133.58l-0.5215 4.8711-4.1269 38.484h-27.42c-1.6494 0-2.9786 1.3291-2.9786 2.9785v4.3457c0 1.6494 1.3292 2.9766 2.9786 2.9766h154.15c1.6495 0 2.9765-1.3271 2.9765-2.9766v-4.3457c0-1.6494-1.327-2.9785-2.9765-2.9785h-27.398l-4.5566-43.355h133.47c9.9122 0 17.893-7.9804 17.893-17.893v-18.09h0.059v-227.49h-0.3535c-1.7237-9.4977-9.9941-16.658-20.004-16.658h-352.37z" fill="#26c6da" filter="url(#ac)"/>
  <g transform="matrix(.31292 0 0 .31292 43.584 -261.54)">
   <path d="m2878.3 1545.8 86.877 1.9643 7.1429 67.989h-101.52z" fill="#f2f2f2"/>
   <path d="m2878.3 1545.8-2.2696 21.168h91.164l-2.0176-19.203-86.877-1.9649z" fill="#ccc"/>
   <rect transform="scale(1,-1)" x="2725.1" y="-1562.1" width="392.96" height="258.02" ry="17.892" fill="#fff" fill-rule="evenodd"/>
   <path d="m2725 1298.6v227.49h393.08v-227.49zm9.2656 11.756h372.84l-50.003 187.37-279.4-18.688z" fill="#333" fill-rule="evenodd"/>
   <rect x="2725" y="1281.9" width="393.05" height="108.32" ry="20.34" fill="#333"/>
   <rect x="2841.5" y="1605.4" width="160.11" height="10.3" ry="2.9773" fill="#fff"/>
   <circle cx="2921.6" cy="1544.5" r="10.102" fill="#333"/>
   <rect x="2740.9" y="1299.2" width="361.28" height="208.17" fill="#4d4d4d" fill-rule="evenodd"/>
   <rect x="2743.7" y="1301.7" width="358.49" height="202.5" fill="#666" fill-rule="evenodd"/>
   <path d="m2921.9 1281.9 117.28 244.14h78.891v-227.49h-0.3535c-1.7238-9.4976-9.9942-16.658-20.004-16.658h-124.54z" fill="#fff" fill-opacity=".20497" fill-rule="evenodd"/>
  </g>
  <rect x="261.75" y="143.39" width="129.96" height="80.002" ry="3.9246" fill="#4d4d4d" fill-rule="evenodd"/>
  <rect x="261.75" y="220.01" width="129.96" height=".79599" ry="0" fill="#ececec" fill-rule="evenodd"/>
  <path d="m248.85 220.73c-0.72653 1.2664-0.40366 2.0082 0 2.7096 0.89019 1.5467 15.871 3.2218 18.608 3.2218h118.57c2.7373 0 17.68-1.7303 18.66-3.2218 0.66641-1.0143 0.27324-1.8519 0-2.7096z" fill="#4d4d4d" fill-rule="evenodd"/>
  <rect x="266.37" y="147.69" width="120.73" height="67.258" ry="0" fill="#b3b3b3" fill-rule="evenodd"/>
  <path d="m311.32 220.8v0.68991c0 0.45439 0.43711 0.82033 0.97986 0.82033h28.941c0.54275 0 0.97969-0.36594 0.97969-0.82033v-0.68991h-30.9z" fill="#e6e6e6" fill-rule="evenodd"/>
  <path d="m249.01 223.75c1.6712 1.6367 5.3074 2.9093 7.8828 2.9093h141.09c2.5754 0 4.8598-1.2726 6.5366-2.9093z" fill="#333" fill-rule="evenodd"/>
  <rect x="325.91" y="145.09" width="1.6454" height="1.2399" ry=".54745" fill="#b0bec5" fill-rule="evenodd"/>
  <rect x="266.73" y="148.08" width="120.37" height="66.862" ry="0" fill="#ccc" fill-rule="evenodd"/>
  <path d="m333.63 143.39 38.429 80.001h15.732c2.1742 0 3.9245-1.7502 3.9245-3.9245v-72.152c0-2.1742-1.7503-3.9245-3.9245-3.9245h-54.161z" fill="#fff" fill-opacity=".20497" fill-rule="evenodd"/>
  <rect transform="rotate(-90)" x="-858.55" y="895.11" width="83.382" height="125.22" ry="5.7394" fill="#4d4d4d" fill-rule="evenodd"/>
  <rect transform="rotate(-90)" x="-852.14" y="903.99" width="70.549" height="105.32" fill="#ccc" fill-rule="evenodd"/>
  <rect transform="rotate(-90)" x="-832.92" y="898.48" width="2.3614" height="1.959" ry=".86495" fill="#b3b3b3" fill-rule="evenodd"/>
  <rect transform="rotate(-90)" x="-825.91" y="898.65" width="17.884" height="1.7134" ry=".35696" fill="#b3b3b3" fill-rule="evenodd"/>
  <path d="m1011.5 816.86a3.5159 3.5159 0 0 0 3.5161 3.5162 3.5159 3.5159 0 0 0 3.5161 -3.5162 3.5159 3.5159 0 0 0 -3.5161 -3.5161 3.5159 3.5159 0 0 0 -3.5161 3.5161zm0.9954 0a2.5208 2.5208 0 0 1 2.5207 -2.5205 2.5208 2.5208 0 0 1 2.5206 2.5205 2.5208 2.5208 0 0 1 -2.5206 2.5207 2.5208 2.5208 0 0 1 -2.5207 -2.5207z" fill="#b3b3b3" fill-rule="evenodd"/>
  <rect transform="rotate(-90)" x="-851.66" y="904.43" width="70.067" height="104.88" fill="#ccc" fill-rule="evenodd"/>
  <g transform="matrix(1.1401 0 0 1.1401 -71.371 -118.6)" fill-rule="evenodd">
   <rect x="327.59" y="779.11" width="44.301" height="79.3" ry="3.6347" fill="#4d4d4d"/>
   <rect x="328.96" y="786.37" width="41.725" height="63.411" fill="#ccc"/>
   <rect x="341.21" y="781.58" width="1.2546" height="1.2406" ry=".54776" fill="#b3b3b3"/>
   <rect x="344.93" y="781.69" width="9.5021" height="1.0851" ry=".22605" fill="#b3b3b3"/>
   <path d="m349.74 851.47a2.9322 2.9322 0 0 0 -2.9324 2.9323 2.9322 2.9322 0 0 0 2.9324 2.9323 2.9322 2.9322 0 0 0 2.9323 -2.9323 2.9322 2.9322 0 0 0 -2.9323 -2.9323zm0 0.8302a2.1023 2.1023 0 0 1 2.1021 2.1021 2.1023 2.1023 0 0 1 -2.1021 2.1021 2.1023 2.1023 0 0 1 -2.1021 -2.1021 2.1023 2.1023 0 0 1 2.1021 -2.1021z" fill="#b3b3b3"/>
   <rect x="329.78" y="787.12" width="40.907" height="62.661" fill="#b3b3b3"/>
   <path d="m338.8 779.11 33.089 68.884v-65.25c0-2.0136-1.6203-3.6338-3.6338-3.6338h-29.455z" fill="#fff" fill-opacity=".20497"/>
  </g>
  <path d="m164.33 542.71h14.074a1.7648 0.29518 0 0 1 1.7648 0.29515v3.2944a1.7648 0.29518 0 0 1 -1.7648 0.29525h-14.074a1.7648 0.29518 0 0 1 -1.7648 -0.29525v-3.2944a1.7648 0.29518 0 0 1 1.7648 -0.29515" fill="#fff"/>
  <path d="m217.83 542.71h14.074a1.7648 0.29518 0 0 1 1.7648 0.29515v3.2944a1.7648 0.29518 0 0 1 -1.7648 0.29526h-14.074a1.7648 0.29518 0 0 1 -1.7648 -0.29526v-3.2944a1.7648 0.29518 0 0 1 1.7648 -0.29515" fill="#fff"/>
  <g transform="translate(-8.9807 -.87784)" fill="#26c6da">
   <circle cx="800.8" cy="503.09" r="12.374"/>
   <circle cx="837.16" cy="503.09" r="12.374"/>
   <circle cx="873.53" cy="503.09" r="12.374"/>
   <circle cx="909.89" cy="503.09" r="12.374"/>
   <circle cx="946.26" cy="503.09" r="12.374"/>
  </g>
  <g transform="translate(-451.93 -.87784)" fill="#26c6da">
   <circle cx="800.8" cy="503.09" r="12.374"/>
   <circle cx="837.16" cy="503.09" r="12.374"/>
   <circle cx="873.53" cy="503.09" r="12.374"/>
   <circle cx="909.89" cy="503.09" r="12.374"/>
   <circle cx="946.26" cy="503.09" r="12.374"/>
  </g>
  <g transform="matrix(.70711 .70711 -.70711 .70711 538.66 -312.86)" fill="#26c6da">
   <circle cx="800.8" cy="503.09" r="12.374"/>
   <circle cx="837.16" cy="503.09" r="12.374"/>
   <circle cx="873.53" cy="503.09" r="12.374"/>
   <circle cx="909.89" cy="503.09" r="12.374"/>
   <circle cx="946.26" cy="503.09" r="12.374"/>
  </g>
  <g transform="matrix(-.70711 .70711 .70711 .70711 748.39 -312.86)" fill="#26c6da">
   <circle cx="800.8" cy="503.09" r="12.374"/>
   <circle cx="837.16" cy="503.09" r="12.374"/>
   <circle cx="873.53" cy="503.09" r="12.374"/>
   <circle cx="909.89" cy="503.09" r="12.374"/>
   <circle cx="946.26" cy="503.09" r="12.374"/>
  </g>
  <g transform="matrix(-.70711 .70711 .70711 .70711 1060.8 -625.73)" fill="#26c6da">
   <circle cx="800.8" cy="503.09" r="12.374"/>
   <circle cx="837.16" cy="503.09" r="12.374"/>
   <circle cx="873.53" cy="503.09" r="12.374"/>
   <circle cx="909.89" cy="503.09" r="12.374"/>
   <circle cx="946.26" cy="503.09" r="12.374"/>
  </g>
  <g transform="matrix(.70711 .70711 -.70711 .70711 221.18 -630.05)" fill="#26c6da">
   <circle cx="800.8" cy="503.09" r="12.374"/>
   <circle cx="837.16" cy="503.09" r="12.374"/>
   <circle cx="873.53" cy="503.09" r="12.374"/>
   <circle cx="909.89" cy="503.09" r="12.374"/>
   <circle cx="946.26" cy="503.09" r="12.374"/>
  </g>
  <path transform="translate(18.499 30.31)" d="m941.33 744.86l40.053 83.381h14.711c3.1796 0 5.7402-2.5587 5.7402-5.7383v-71.904c0-3.1796-2.5606-5.7383-5.7402-5.7383h-54.764z" fill="#fff" fill-opacity=".20497" fill-rule="evenodd"/>
 </g>
</svg>
